<?xml version="1.0" standalone="no"?>
<svg xmlns:xlink="http://www.w3.org/1999/xlink" id="wave" style="transform:rotate(180deg); transition: 0.3s" viewBox="0 0 1440 130" version="1.1" xmlns="http://www.w3.org/2000/svg"><defs><linearGradient id="sw-gradient-0" x1="0" x2="0" y1="1" y2="0"><stop stop-color="rgba(0, 0, 0, 1)" offset="0%"/><stop stop-color="rgba(0, 0, 0, 1)" offset="100%"/></linearGradient></defs><path style="transform:translate(0, 0px); opacity:1" fill="url(#sw-gradient-0)" d="M0,104L40,93.2C80,82,160,61,240,49.8C320,39,400,39,480,41.2C560,43,640,48,720,56.3C800,65,880,78,960,73.7C1040,69,1120,48,1200,52C1280,56,1360,87,1440,99.7C1520,113,1600,108,1680,97.5C1760,87,1840,69,1920,67.2C2000,65,2080,78,2160,71.5C2240,65,2320,39,2400,41.2C2480,43,2560,74,2640,86.7C2720,100,2800,95,2880,86.7C2960,78,3040,65,3120,58.5C3200,52,3280,52,3360,52C3440,52,3520,52,3600,47.7C3680,43,3760,35,3840,32.5C3920,30,4000,35,4080,49.8C4160,65,4240,91,4320,104C4400,117,4480,117,4560,117C4640,117,4720,117,4800,112.7C4880,108,4960,100,5040,88.8C5120,78,5200,65,5280,67.2C5360,69,5440,87,5520,84.5C5600,82,5680,61,5720,49.8L5760,39L5760,130L5720,130C5680,130,5600,130,5520,130C5440,130,5360,130,5280,130C5200,130,5120,130,5040,130C4960,130,4880,130,4800,130C4720,130,4640,130,4560,130C4480,130,4400,130,4320,130C4240,130,4160,130,4080,130C4000,130,3920,130,3840,130C3760,130,3680,130,3600,130C3520,130,3440,130,3360,130C3280,130,3200,130,3120,130C3040,130,2960,130,2880,130C2800,130,2720,130,2640,130C2560,130,2480,130,2400,130C2320,130,2240,130,2160,130C2080,130,2000,130,1920,130C1840,130,1760,130,1680,130C1600,130,1520,130,1440,130C1360,130,1280,130,1200,130C1120,130,1040,130,960,130C880,130,800,130,720,130C640,130,560,130,480,130C400,130,320,130,240,130C160,130,80,130,40,130L0,130Z"/></svg>